<?xml version="1.0" encoding="UTF-8"?>
<svg version="1.1" xmlns="http://www.w3.org/2000/svg" width="32" height="28">
<path d="M0 0 C10.56 0 21.12 0 32 0 C32 9.24 32 18.48 32 28 C21.44 28 10.88 28 0 28 C0 18.76 0 9.52 0 0 Z " fill="#ACA5C7" transform="translate(0,0)"/>
<path d="M0 0 C3.96 0 7.92 0 12 0 C12 9.24 12 18.48 12 28 C11.01 28 10.02 28 9 28 C9 26.35 9 24.7 9 23 C4.4552621 22.3267055 0.39987833 22.01676197 -4.1875 22.3125 C-8.47770947 22.3984364 -8.47770947 22.3984364 -10.74609375 20.66796875 C-12.125 19 -12.125 19 -14 16 C-13.34 15.67 -12.68 15.34 -12 15 C-11.59270772 12.67843403 -11.25561323 10.3431213 -11 8 C-8.75972706 10.88035092 -6.83827868 13.84866512 -5 17 C-1.70851757 15.86500606 -1.0040131 15.00716624 0.75 11.875 C1.1625 10.92625 1.575 9.9775 2 9 C2.66 9 3.32 9 4 9 C4 10.98 4 12.96 4 15 C4.99 15 5.98 15 7 15 C7.29445076 9.99433712 7.11763863 7.00839253 4 3 C2.68 2.01 1.36 1.02 0 0 Z " fill="#E2E0EB" transform="translate(20,0)"/>
<path d="M0 0 C6.05761794 -0.41776675 9.19025097 -0.12264203 14 4 C16.57817196 7.39849941 16.30727 10.85185505 16 15 C15.34 15.66 14.68 16.32 14 17 C14 16.34 14 15.68 14 15 C13.01 15.33 12.02 15.66 11 16 C11.33 13.69 11.66 11.38 12 9 C11.34 9 10.68 9 10 9 C9.731875 9.94875 9.46375 10.8975 9.1875 11.875 C8 15 8 15 5 17 C5 13.7 5 10.4 5 7 C6.32 7 7.64 7 9 7 C9 6.34 9 5.68 9 5 C6.36 4.67 3.72 4.34 1 4 C1.66 3.67 2.32 3.34 3 3 C3 2.34 3 1.68 3 1 C2.01 0.67 1.02 0.34 0 0 Z " fill="#AAA3C5" transform="translate(12,0)"/>
<path d="M0 0 C1.65 0 3.3 0 5 0 C5 0.33 5 0.66 5 1 C12.92 1 20.84 1 29 1 C29 2.65 29 4.3 29 6 C19.43 6 9.86 6 0 6 C0 4.02 0 2.04 0 0 Z " fill="#C6C1D8" transform="translate(0,22)"/>
<path d="M0 0 C3.96 0 7.92 0 12 0 C11.21625 0.763125 10.4325 1.52625 9.625 2.3125 C6.60661138 5.40275501 5.09751608 6.96632952 4.6875 11.3125 C5.0205711 15.24273899 6.02346453 17.62341858 8 21 C5.36 21 2.72 21 0 21 C0 14.07 0 7.14 0 0 Z " fill="#FCFCFD" transform="translate(0,0)"/>
<path d="M0 0 C3.96 0 7.92 0 12 0 C12 6.93 12 13.86 12 21 C9.36 21 6.72 21 4 21 C4.495 20.154375 4.99 19.30875 5.5 18.4375 C7.19328488 14.55705549 7.45719971 12.19099736 7 8 C5.15752604 3.94655729 3.69944363 2.77458272 0 0 Z " fill="#FCFCFD" transform="translate(20,0)"/>
<path d="M0 0 C1.21429688 -0.01417969 2.42859375 -0.02835938 3.6796875 -0.04296875 C6.96844421 0.17702745 9.17865948 0.77034382 12.125 2.1875 C12.125 2.5175 12.125 2.8475 12.125 3.1875 C4.205 3.1875 -3.715 3.1875 -11.875 3.1875 C-8.33610273 -0.35139727 -4.78042995 0.02526654 0 0 Z " fill="#675A99" transform="translate(15.875,20.8125)"/>
<path d="M0 0 C0.66 0 1.32 0 2 0 C1.91291331 1.45945288 1.80473093 2.91765868 1.6875 4.375 C1.62949219 5.18710938 1.57148438 5.99921875 1.51171875 6.8359375 C1 9 1 9 -2 11 C-4.04296875 11.1953125 -4.04296875 11.1953125 -6.1875 11.125 C-8.0746875 11.063125 -8.0746875 11.063125 -10 11 C-10.33 10.34 -10.66 9.68 -11 9 C-9.02 9 -7.04 9 -5 9 C-3.35 6.03 -1.7 3.06 0 0 Z " fill="#D6D2E3" transform="translate(22,9)"/>
<path d="M0 0 C0 3.3 0 6.6 0 10 C-0.99 9.34 -1.98 8.68 -3 8 C-3.6875 4.375 -3.6875 4.375 -4 1 C-2 0 -2 0 0 0 Z " fill="#352376" transform="translate(15,7)"/>
<path d="M0 0 C1.32 0.33 2.64 0.66 4 1 C3.6875 4.375 3.6875 4.375 3 8 C2.01 8.66 1.02 9.32 0 10 C0 6.7 0 3.4 0 0 Z " fill="#311F74" transform="translate(17,7)"/>
<path d="M0 0 C3 0.1875 3 0.1875 5 1.1875 C5 1.8475 5 2.5075 5 3.1875 C3.68 3.1875 2.36 3.1875 1 3.1875 C1 2.5275 1 1.8675 1 1.1875 C0.34 1.1875 -0.32 1.1875 -1 1.1875 C-1 1.8475 -1 2.5075 -1 3.1875 C-2.32 2.8575 -3.64 2.5275 -5 2.1875 C-3 0.1875 -3 0.1875 0 0 Z " fill="#EEEDF3" transform="translate(16,3.8125)"/>
<path d="M0 0 C1.65 0 3.3 0 5 0 C5 1.98 5 3.96 5 6 C4.01 6 3.02 6 2 6 C2 4.35 2 2.7 2 1 C1.34 0.67 0.68 0.34 0 0 Z " fill="#F2F1F6" transform="translate(27,22)"/>
<path d="M0 0 C1.65 0 3.3 0 5 0 C4.01 0.495 4.01 0.495 3 1 C3 2.65 3 4.3 3 6 C2.01 6 1.02 6 0 6 C0 4.02 0 2.04 0 0 Z " fill="#F2F1F6" transform="translate(0,22)"/>
</svg>
